<svg id="cc83a71d-b2c8-45ad-853e-58323bad9051" data-name="Layer 1" xmlns="http://www.w3.org/2000/svg" viewBox="0 0 759.92 211.41"><title>logo-white</title><path d="M280.59,437.22H220V602H179.23V437.22H119.45v-33H280.59Z" transform="translate(-119.45 -393.33)" fill="#fff"/><path d="M363.61,602a43.52,43.52,0,0,1-3.94-13.18q-14.26,15.9-37.09,15.9-21.61,0-35.81-12.5a40.23,40.23,0,0,1-14.19-31.53q0-23.36,17.32-35.87T340,512.22H358v-8.43q0-10.19-5.23-16.3t-16.51-6.11q-9.92,0-15.56,4.75t-5.64,13H275.84a39.41,39.41,0,0,1,7.88-23.64q7.88-10.86,22.28-17a81.23,81.23,0,0,1,32.34-6.18q27.17,0,43.14,13.65t16,38.39v63.72q.13,20.93,5.84,31.66V602Zm-32.47-27.31a33.84,33.84,0,0,0,16-3.87A25.52,25.52,0,0,0,358,560.45V535.18H343.36q-29.48,0-31.38,20.38l-.14,2.31A15.69,15.69,0,0,0,317,570Q322.17,574.71,331.14,574.72Z" transform="translate(-119.45 -393.33)" fill="#fff"/><path d="M469,602h-39.4V393.33H469Z" transform="translate(-119.45 -393.33)" fill="#fff"/><path d="M554.78,543.06l-14.13,14.13V602H501.38V393.33h39.27V509l7.61-9.79L585.89,455H633l-53.13,61.27L637.66,602H592.55Z" transform="translate(-119.45 -393.33)" fill="#fff"/><path d="M738.07,587.08q-14.55,17.67-40.22,17.67-23.64,0-36.07-13.59t-12.71-39.81V455h39.27V550.1q0,23,20.92,23,20,0,27.45-13.88V455h39.4V602h-37Z" transform="translate(-119.45 -393.33)" fill="#fff"/><path d="M852.74,418.88V455h25.14v28.8H852.74v73.37q0,8.16,3.13,11.69t12,3.53a63,63,0,0,0,11.55-.95v29.75a80.65,80.65,0,0,1-23.77,3.54q-41.31,0-42.13-41.72V483.82H792V455h21.46V418.88Z" transform="translate(-119.45 -393.33)" fill="#fff"/></svg>